<svg version="1.1" xmlns="http://www.w3.org/2000/svg" viewBox="0 0 766.5 794" width="766.5" height="794" filter="invert(93%) hue-rotate(180deg)">
  <!-- svg-source:excalidraw -->
  
  <defs>
    <style class="style-fonts">
      @font-face {
        font-family: "Virgil";
        src: url("https://excalidraw.com/Virgil.woff2");
      }
      @font-face {
        font-family: "Cascadia";
        src: url("https://excalidraw.com/Cascadia.woff2");
      }
    </style>
    
  </defs>
  <rect x="0" y="0" width="766.5" height="794" fill="#ffffff"></rect><g stroke-linecap="round" transform="translate(10 149) rotate(0 73 48.5)"><path d="M24.25 0 M24.25 0 C46.74 -0.42, 68.13 1.04, 121.75 0 M24.25 0 C50.95 -0.22, 78.58 0.76, 121.75 0 M121.75 0 C136 1.79, 147.61 7.62, 146 24.25 M121.75 0 C137.87 -1.56, 143.92 9.66, 146 24.25 M146 24.25 C147.2 35.62, 145.49 50.01, 146 72.75 M146 24.25 C145.39 40.34, 145.33 57.48, 146 72.75 M146 72.75 C145.29 90.5, 137.09 95.13, 121.75 97 M146 72.75 C146.67 89.71, 137.14 98.54, 121.75 97 M121.75 97 C90.12 96.99, 56.39 98.35, 24.25 97 M121.75 97 C93.71 95.68, 65.99 96.02, 24.25 97 M24.25 97 C6.3 96.85, -0.97 89.41, 0 72.75 M24.25 97 C7.49 97.66, 0.89 90.47, 0 72.75 M0 72.75 C1.19 52.34, 1.19 35.08, 0 24.25 M0 72.75 C0.51 57.13, 0.68 40.82, 0 24.25 M0 24.25 C-1.72 6.13, 6.65 -1.82, 24.25 0 M0 24.25 C1.05 9.3, 6.37 0.59, 24.25 0" stroke="#1e1e1e" stroke-width="1" fill="none"></path></g><g transform="translate(28.700000762939453 160) rotate(0 54.29999923706055 37.5)"><text x="54.29999923706055" y="0" font-family="Virgil, Segoe UI Emoji" font-size="20px" fill="#2f9e44" text-anchor="middle" style="white-space: pre;" direction="ltr" dominant-baseline="text-before-edge">Immutable </text><text x="54.29999923706055" y="25" font-family="Virgil, Segoe UI Emoji" font-size="20px" fill="#2f9e44" text-anchor="middle" style="white-space: pre;" direction="ltr" dominant-baseline="text-before-edge">Variable</text><text x="54.29999923706055" y="50" font-family="Virgil, Segoe UI Emoji" font-size="20px" fill="#2f9e44" text-anchor="middle" style="white-space: pre;" direction="ltr" dominant-baseline="text-before-edge">x = 10</text></g><g stroke-linecap="round" transform="translate(365 58) rotate(0 135.5 135)"><path d="M22.52 113.66 C22.52 113.66, 22.52 113.66, 22.52 113.66 M22.52 113.66 C22.52 113.66, 22.52 113.66, 22.52 113.66 M10.45 133.64 C32.15 109.45, 52.19 84.68, 63.59 72.51 M10.45 133.64 C28.65 112.34, 45.46 91.29, 63.59 72.51 M10.85 139.28 C34.32 112.71, 55.21 91.5, 104.67 31.36 M10.85 139.28 C43.36 104.8, 72.92 67.66, 104.67 31.36 M11.9 144.17 C54.1 94.33, 95.05 48.15, 126.71 12.1 M11.9 144.17 C37.73 113.72, 64.08 84.7, 126.71 12.1 M14.26 147.55 C42.61 117.44, 71.61 81.45, 134.32 9.44 M14.26 147.55 C59.25 93.55, 105.44 41.67, 134.32 9.44 M17.28 150.17 C44.11 117.58, 70.36 84.8, 138.65 10.55 M17.28 150.17 C47.64 117.45, 76.27 84.88, 138.65 10.55 M19.64 153.55 C62.07 104.43, 108.11 54.01, 143.64 10.91 M19.64 153.55 C64.45 104.33, 106.75 52.83, 143.64 10.91 M22.01 156.93 C66.61 110.95, 106.58 61.9, 146.66 13.54 M22.01 156.93 C46.79 126.43, 71.27 97.42, 146.66 13.54 M24.37 160.31 C57.57 121.6, 90.49 82.51, 150.33 15.41 M24.37 160.31 C57.41 121.67, 91.13 83.72, 150.33 15.41 M27.39 162.93 C65.5 121.42, 101.51 81.57, 153.35 18.03 M27.39 162.93 C77.93 104.08, 127.08 46.62, 153.35 18.03 M30.41 165.56 C55.03 134.95, 81.89 105.24, 156.37 20.65 M30.41 165.56 C66.82 123.67, 101.99 79.83, 156.37 20.65 M33.43 168.18 C68.86 129.89, 101.23 92.52, 159.39 23.28 M33.43 168.18 C74.57 123.85, 114.04 77.59, 159.39 23.28 M35.79 171.56 C76.71 127.29, 113.91 82.7, 162.41 25.9 M35.79 171.56 C79.22 124.16, 121.6 74.16, 162.41 25.9 M38.81 174.19 C74.98 130.36, 112.8 89.39, 164.77 29.28 M38.81 174.19 C80.33 126.46, 121.5 79.9, 164.77 29.28 M41.83 176.81 C89.35 120.62, 138.55 68.4, 167.79 31.91 M41.83 176.81 C72.94 142.91, 102.03 109.05, 167.79 31.91 M44.85 179.43 C88.28 127.32, 136.12 70.43, 170.81 34.53 M44.85 179.43 C70.82 150.21, 97.05 119.08, 170.81 34.53 M47.21 182.81 C93.47 126, 142.79 73.34, 173.83 37.15 M47.21 182.81 C97.66 126.56, 145.34 70.53, 173.83 37.15 M50.23 185.44 C90.03 141.22, 129.93 95.48, 176.19 40.53 M50.23 185.44 C101.55 129.17, 149.88 72.61, 176.19 40.53 M53.25 188.06 C99.1 138.25, 141.14 88.57, 179.21 43.16 M53.25 188.06 C92.97 142.29, 132.35 96.92, 179.21 43.16 M56.26 190.69 C102.87 138.48, 147.91 85.02, 182.23 45.78 M56.26 190.69 C101 140.59, 146.31 87.15, 182.23 45.78 M58.63 194.07 C91.62 157.97, 123.72 120.04, 184.59 49.16 M58.63 194.07 C92.47 154.4, 127.95 113.29, 184.59 49.16 M61.65 196.69 C105.75 143.94, 152.86 92.56, 187.61 51.79 M61.65 196.69 C86.46 167.05, 113.14 134.85, 187.61 51.79 M64.66 199.31 C110.86 143.61, 159.05 89.93, 190.63 54.41 M64.66 199.31 C101.89 156.25, 138.46 113.57, 190.63 54.41 M67.68 201.94 C111.39 147.71, 157.45 96.84, 192.99 57.79 M67.68 201.94 C104.91 156.64, 144.01 111.75, 192.99 57.79 M70.7 204.56 C103.08 163.48, 137.2 124.22, 196.01 60.41 M70.7 204.56 C108.29 161.51, 147.1 117.5, 196.01 60.41 M73.07 207.94 C97.58 177.75, 126.4 146.95, 199.03 63.04 M73.07 207.94 C103.9 172.7, 135.26 137.26, 199.03 63.04 M76.08 210.57 C109.55 175.01, 139.11 136.59, 201.39 66.42 M76.08 210.57 C103.11 180, 129.65 149.84, 201.39 66.42 M79.1 213.19 C127.3 157.99, 174.67 99.56, 204.41 69.04 M79.1 213.19 C112.82 178.45, 143.37 140.41, 204.41 69.04 M82.12 215.81 C123.62 167.75, 162.63 125.71, 207.43 71.66 M82.12 215.81 C111.7 184.79, 140.92 151.15, 207.43 71.66 M84.48 219.19 C129.71 167.68, 174.34 114.28, 209.79 75.04 M84.48 219.19 C111.65 188.36, 136.52 159.02, 209.79 75.04 M87.5 221.82 C131.16 170.16, 176.97 119.87, 212.81 77.67 M87.5 221.82 C130.55 173.02, 173.53 124.23, 212.81 77.67 M90.52 224.44 C120.95 190.75, 154.32 154.14, 215.83 80.29 M90.52 224.44 C120.13 191.04, 147.12 158.1, 215.83 80.29 M93.54 227.07 C121.26 195.27, 145.24 167.05, 218.85 82.92 M93.54 227.07 C125.88 191.6, 154.35 158.05, 218.85 82.92 M95.9 230.44 C133.95 183.57, 172.62 138.33, 221.21 86.29 M95.9 230.44 C128.76 192.09, 161.56 153.44, 221.21 86.29 M98.92 233.07 C145.78 176.97, 192.17 123.83, 224.23 88.92 M98.92 233.07 C148.62 175.6, 198.75 117.99, 224.23 88.92 M101.94 235.69 C139.45 198.01, 173.1 156.59, 227.25 91.54 M101.94 235.69 C144.47 187.83, 184.72 140.72, 227.25 91.54 M104.96 238.32 C145.17 189.16, 188.24 142.21, 229.61 94.92 M104.96 238.32 C155.55 180.65, 205.01 123.13, 229.61 94.92 M107.98 240.94 C140.61 203.13, 169.15 171.13, 232.63 97.55 M107.98 240.94 C138.41 206.71, 168.61 171.85, 232.63 97.55 M110.34 244.32 C157.66 189.75, 206.51 136.19, 235.65 100.17 M110.34 244.32 C158.37 191.16, 204.09 137.23, 235.65 100.17 M113.36 246.94 C156.49 196.54, 201.65 144.8, 238.01 103.55 M113.36 246.94 C148.12 207.77, 184.26 166.35, 238.01 103.55 M116.38 249.57 C140.13 220.38, 164.71 190.65, 241.03 106.17 M116.38 249.57 C140.58 220.26, 165.59 191.12, 241.03 106.17 M119.4 252.19 C164.56 202.48, 206.71 153.73, 244.05 108.8 M119.4 252.19 C167.45 197.75, 214.51 142.77, 244.05 108.8 M122.42 254.82 C167.47 203.9, 211.47 153.53, 246.41 112.18 M122.42 254.82 C158.94 211.97, 196.29 170.17, 246.41 112.18 M125.44 257.44 C169.49 206.16, 212.59 154.34, 249.43 114.8 M125.44 257.44 C161.64 217.63, 198.81 175.66, 249.43 114.8 M128.46 260.07 C167.48 215.65, 206.12 172, 252.45 117.43 M128.46 260.07 C152.18 230.03, 178.47 202.16, 252.45 117.43 M132.79 261.18 C175.58 213.3, 213.69 168.63, 255.47 120.05 M132.79 261.18 C159.01 231.24, 185.9 201.9, 255.47 120.05 M139.09 260.03 C171 223.23, 203.55 187.9, 257.83 123.43 M139.09 260.03 C166.2 229.14, 193.15 196.61, 257.83 123.43 M143.42 261.15 C173.28 230.19, 201.05 196.57, 260.19 126.81 M143.42 261.15 C190.03 210.19, 234.27 158.19, 260.19 126.81 M160.21 247.92 C191.02 213.69, 218.64 178.53, 261.9 130.94 M160.21 247.92 C179.7 223.04, 200.57 200.15, 261.9 130.94 M198 210.55 C213.1 192.57, 231.02 172.09, 262.95 135.83 M198 210.55 C216.96 187.51, 235.43 166.66, 262.95 135.83" stroke="#ffc9c9" stroke-width="0.5" fill="none"></path><path d="M170 34 M170 34 C184.85 46.53, 198.58 61.01, 237 102 M170 34 C190.65 55.82, 210.87 77.13, 237 102 M237 102 C272.32 134.58, 270.78 136.9, 237 170 M237 102 C271.64 136.96, 269.14 135.02, 237 170 M237 170 C216.52 192.65, 194.17 213.15, 170 236 M237 170 C213.95 195.45, 189.13 218.02, 170 236 M170 236 C136.84 269.55, 135.04 268.79, 102 236 M170 236 C137.14 271.86, 137.21 269.73, 102 236 M102 236 C74.26 209.9, 48.12 183.73, 34 170 M102 236 C82.75 217.99, 63.84 200, 34 170 M34 170 C1.51 137.49, -1.89 135.54, 34 102 M34 170 C1.06 136.38, -1.66 138.16, 34 102 M34 102 C52.52 80.36, 71.51 60.91, 102 34 M34 102 C48.77 86.59, 62.64 72.64, 102 34 M102 34 C134.93 1.22, 136.42 -1.79, 170 34 M102 34 C136.58 -0.75, 136.79 0.39, 170 34" stroke="#1e1e1e" stroke-width="1" fill="none"></path></g><g transform="translate(437.8833351135254 130.5) rotate(0 62.86666488647461 62.5)"><text x="62.86666488647461" y="0" font-family="Virgil, Segoe UI Emoji" font-size="20px" fill="#2f9e44" text-anchor="middle" style="white-space: pre;" direction="ltr" dominant-baseline="text-before-edge"></text><text x="62.86666488647461" y="25" font-family="Virgil, Segoe UI Emoji" font-size="20px" fill="#2f9e44" text-anchor="middle" style="white-space: pre;" direction="ltr" dominant-baseline="text-before-edge">x = 20</text><text x="62.86666488647461" y="50" font-family="Virgil, Segoe UI Emoji" font-size="20px" fill="#2f9e44" text-anchor="middle" style="white-space: pre;" direction="ltr" dominant-baseline="text-before-edge">Modification </text><text x="62.86666488647461" y="75" font-family="Virgil, Segoe UI Emoji" font-size="20px" fill="#2f9e44" text-anchor="middle" style="white-space: pre;" direction="ltr" dominant-baseline="text-before-edge">only inside </text><text x="62.86666488647461" y="100" font-family="Virgil, Segoe UI Emoji" font-size="20px" fill="#2f9e44" text-anchor="middle" style="white-space: pre;" direction="ltr" dominant-baseline="text-before-edge">the function</text></g><g stroke-linecap="round"><g transform="translate(161.0769558893038 198.89924230675217) rotate(0 105.02736164623138 0.5413755263065241)"><path d="M0.95 -0.89 C36.07 -0.96, 175.19 0.44, 210.06 0.64 M0 1.25 C35.07 1.87, 174.46 1.97, 209.42 1.98" stroke="#1e1e1e" stroke-width="1" fill="none"></path></g><g transform="translate(161.0769558893038 198.89924230675217) rotate(0 105.02736164623138 0.5413755263065241)"><path d="M179.74 13.21 C187.41 10.67, 193.84 7.03, 210.56 1.65 M181.42 12.24 C188.69 9.16, 197.1 6.36, 209.42 2.5" stroke="#1e1e1e" stroke-width="1" fill="none"></path></g><g transform="translate(161.0769558893038 198.89924230675217) rotate(0 105.02736164623138 0.5413755263065241)"><path d="M179.75 -7.31 C187.6 -4.81, 194.03 -3.42, 210.56 1.65 M181.44 -8.28 C188.77 -5.86, 197.17 -3.15, 209.42 2.5" stroke="#1e1e1e" stroke-width="1" fill="none"></path></g></g><mask></mask><g transform="translate(204 10) rotate(0 69.5999984741211 12.5)"><text x="0" y="0" font-family="Virgil, Segoe UI Emoji" font-size="20px" fill="#1e1e1e" text-anchor="start" style="white-space: pre;" direction="ltr" dominant-baseline="text-before-edge">Pass by value</text></g><g stroke-linecap="round" transform="translate(44.5 516.5) rotate(0 69.5 61.5)"><path d="M4.47 11.84 C4.47 11.84, 4.47 11.84, 4.47 11.84 M4.47 11.84 C4.47 11.84, 4.47 11.84, 4.47 11.84 M0.93 22.01 C5.8 16.44, 7.38 13.03, 17.99 2.39 M0.93 22.01 C4.46 17.85, 9.18 12.82, 17.99 2.39 M3.3 25.39 C6.95 18.16, 11.81 11.19, 24.29 1.24 M3.3 25.39 C7.59 19.16, 12 13.57, 24.29 1.24 M3.03 31.79 C7.65 27.31, 14.65 18.36, 29.93 0.84 M3.03 31.79 C10.11 23.04, 18.61 13.38, 29.93 0.84 M2.77 38.19 C11.08 26.4, 20.25 16.13, 33.61 2.71 M2.77 38.19 C11.23 28.58, 18.01 19.51, 33.61 2.71 M3.17 43.83 C15.43 29.83, 30.52 14.18, 39.25 2.32 M3.17 43.83 C14.74 31.67, 25.27 19.72, 39.25 2.32 M2.91 50.23 C14.3 36.78, 29.07 19.49, 44.24 2.68 M2.91 50.23 C14.08 36.15, 27.12 22.35, 44.24 2.68 M3.3 55.87 C20.12 38.28, 32.31 20.8, 49.22 3.04 M3.3 55.87 C13.57 43.61, 23.8 31.35, 49.22 3.04 M3.04 62.27 C15.95 50.59, 28.05 35.47, 54.87 2.64 M3.04 62.27 C19.46 44.37, 35.55 24.72, 54.87 2.64 M2.78 68.66 C19.8 49.02, 38.92 27.02, 59.85 3 M2.78 68.66 C24.55 43.5, 46.58 19.12, 59.85 3 M3.17 74.31 C21.94 51.7, 41 30.62, 65.5 2.61 M3.17 74.31 C19.68 54.19, 34.22 36.2, 65.5 2.61 M2.91 80.71 C18.95 62.5, 35.02 44.59, 70.48 2.97 M2.91 80.71 C25.99 54.25, 47.91 27.91, 70.48 2.97 M3.3 86.35 C25.18 59.64, 49.79 35.69, 76.13 2.58 M3.3 86.35 C25.4 60.59, 48.92 33.88, 76.13 2.58 M3.04 92.75 C23.76 69.34, 40.18 51.93, 81.11 2.94 M3.04 92.75 C18.01 73.88, 34.05 56.11, 81.11 2.94 M1.47 100.65 C34.79 62.44, 66.72 24.54, 86.76 2.54 M1.47 100.65 C24.33 76.86, 44.56 52.8, 86.76 2.54 M3.18 104.79 C28.45 77.23, 55.31 48.54, 91.74 2.9 M3.18 104.79 C36.74 68.56, 69.68 29.12, 91.74 2.9 M4.88 108.92 C39.98 69.42, 75.65 28.34, 96.73 3.26 M4.88 108.92 C27.98 83.29, 51.54 55.34, 96.73 3.26 M6.59 113.05 C43.58 69.26, 81.37 29.34, 102.37 2.87 M6.59 113.05 C42.41 72.69, 78.23 30.75, 102.37 2.87 M8.95 116.43 C42.08 77.89, 77.19 39.35, 107.36 3.23 M8.95 116.43 C39.81 80.89, 70.17 43.92, 107.36 3.23 M12.63 118.3 C32.67 95.37, 54.71 71.02, 113 2.83 M12.63 118.3 C36.25 91.54, 59.53 64.56, 113 2.83 M15.65 120.93 C57.96 77.07, 97.77 29.64, 117.99 3.19 M15.65 120.93 C40.94 90.46, 68.84 59.79, 117.99 3.19 M19.32 122.8 C48.55 91.52, 73.55 63.35, 122.98 3.55 M19.32 122.8 C48.18 89.19, 77.88 55.92, 122.98 3.55 M24.31 123.16 C49.86 96.14, 73.82 69.44, 126.65 5.42 M24.31 123.16 C55.04 87.87, 84.12 53.55, 126.65 5.42 M29.3 123.52 C52.63 94.81, 79.05 66.18, 130.33 7.29 M29.3 123.52 C67.48 79.25, 103.68 36.48, 130.33 7.29 M34.94 123.12 C65.93 88.58, 93.59 51.95, 133.35 9.92 M34.94 123.12 C58.78 95.67, 84.02 67.75, 133.35 9.92 M39.93 123.48 C77.61 81.82, 110.79 41.02, 135.71 13.29 M39.93 123.48 C63.74 94.8, 87.28 66.9, 135.71 13.29 M45.57 123.09 C79.17 82.7, 116.25 41.33, 137.42 17.43 M45.57 123.09 C77.1 88.56, 108.75 51.11, 137.42 17.43 M50.56 123.45 C71.63 97.52, 94.83 74.9, 137.81 23.07 M50.56 123.45 C84.19 82.95, 118.07 44.13, 137.81 23.07 M56.2 123.05 C87.39 88.46, 115.67 55.13, 138.86 27.96 M56.2 123.05 C77.09 101.26, 95.19 78.27, 138.86 27.96 M61.19 123.41 C87.16 93.16, 111.91 62.77, 140.57 32.09 M61.19 123.41 C89.81 90.75, 118.75 56.08, 140.57 32.09 M66.17 123.77 C88.12 100.09, 114.47 71.87, 140.31 38.49 M66.17 123.77 C93.58 91.54, 121.98 59.94, 140.31 38.49 M71.82 123.38 C96.82 95.23, 117.77 70.65, 140.7 44.13 M71.82 123.38 C90.55 102.17, 107.77 83.6, 140.7 44.13 M76.8 123.74 C92.65 106.88, 103.45 91.85, 140.44 50.53 M76.8 123.74 C90.26 106.9, 105.47 90.06, 140.44 50.53 M82.45 123.34 C105.21 98.55, 125.12 73.99, 140.18 56.93 M82.45 123.34 C97.23 106.48, 113.15 89.3, 140.18 56.93 M87.43 123.7 C98.12 110.66, 110.51 95.28, 140.57 62.57 M87.43 123.7 C102.1 107.74, 115.24 91.97, 140.57 62.57 M93.08 123.31 C104.88 109.09, 117.66 95.87, 140.31 68.97 M93.08 123.31 C105.42 108.88, 118.08 94.66, 140.31 68.97 M98.06 123.67 C107.49 111.52, 117.7 102.94, 140.05 75.37 M98.06 123.67 C112.78 107.03, 128.82 89.18, 140.05 75.37 M103.71 123.28 C119.45 106.3, 132.21 89.93, 140.45 81.01 M103.71 123.28 C114.69 110.07, 124.49 98.81, 140.45 81.01 M108.69 123.64 C116.57 115.84, 120.13 108.17, 140.18 87.41 M108.69 123.64 C115.69 115.74, 122.11 108.63, 140.18 87.41 M114.99 122.49 C121.45 114.61, 129.51 106.29, 139.92 93.81 M114.99 122.49 C120.99 114.36, 128.62 106.96, 139.92 93.81 M120.64 122.09 C126.15 116.09, 132.9 107.21, 139.66 100.21 M120.64 122.09 C127.32 115.26, 133.88 107.58, 139.66 100.21" stroke="#a5d8ff" stroke-width="0.5" fill="none"></path><path d="M30.75 0 M30.75 0 C56.43 1.33, 81.83 -0.44, 108.25 0 M30.75 0 C47.94 0.97, 62.97 0.73, 108.25 0 M108.25 0 C129.33 -1.62, 138.82 10.48, 139 30.75 M108.25 0 C130.03 0.36, 139.61 8.33, 139 30.75 M139 30.75 C138.22 50.28, 139.86 67.3, 139 92.25 M139 30.75 C139.03 52.7, 138.14 74.38, 139 92.25 M139 92.25 C138.79 111, 130.57 121.43, 108.25 123 M139 92.25 C139 113.23, 126.56 121.47, 108.25 123 M108.25 123 C88.29 122.62, 66.98 123.17, 30.75 123 M108.25 123 C82.32 123.9, 58.8 123.21, 30.75 123 M30.75 123 C8.3 124.66, -0.84 111.12, 0 92.25 M30.75 123 C10.14 122.87, -1.03 110.49, 0 92.25 M0 92.25 C-0.75 70.51, -0.55 48.72, 0 30.75 M0 92.25 C-0.17 79.49, 0.87 64.71, 0 30.75 M0 30.75 C0 12.17, 11.67 -0.68, 30.75 0 M0 30.75 C0.56 11.2, 8.47 -2.02, 30.75 0" stroke="#1e1e1e" stroke-width="1" fill="none"></path></g><g transform="translate(59.625 540.5) rotate(0 54.375 37.5)"><text x="54.375" y="0" font-family="Virgil, Segoe UI Emoji" font-size="20px" fill="#e03131" text-anchor="middle" style="white-space: pre;" direction="ltr" dominant-baseline="text-before-edge">Mutable </text><text x="54.375" y="25" font-family="Virgil, Segoe UI Emoji" font-size="20px" fill="#e03131" text-anchor="middle" style="white-space: pre;" direction="ltr" dominant-baseline="text-before-edge">Variable</text><text x="54.375" y="50" font-family="Virgil, Segoe UI Emoji" font-size="20px" fill="#e03131" text-anchor="middle" style="white-space: pre;" direction="ltr" dominant-baseline="text-before-edge">list = [1,2]</text></g><g stroke-linecap="round" transform="translate(387.5 415.5) rotate(0 184.5 164.5)"><path d="M16.16 153.18 C16.16 153.18, 16.16 153.18, 16.16 153.18 M16.16 153.18 C16.16 153.18, 16.16 153.18, 16.16 153.18 M13.28 162.59 C17.52 158.28, 22.62 149.66, 33.61 139.2 M13.28 162.59 C20.37 154.73, 29.11 144.43, 33.61 139.2 M14.33 167.48 C23.94 157.29, 36.33 142.89, 56.97 118.42 M14.33 167.48 C23.52 155.81, 33.6 144.71, 56.97 118.42 M14.72 173.12 C40.63 144.05, 66.43 111.97, 80.98 96.9 M14.72 173.12 C35.86 148.6, 57.06 124.12, 80.98 96.9 M17.08 176.5 C34.72 155.01, 55.22 135.88, 104.34 76.13 M17.08 176.5 C38.45 154.62, 59.13 129.95, 104.34 76.13 M19.45 179.88 C60.9 130.84, 103.28 84.09, 128.35 54.6 M19.45 179.88 C52.24 140.75, 86.87 101.05, 128.35 54.6 M22.47 182.51 C70.34 127.94, 120.9 69.96, 149.74 36.09 M22.47 182.51 C62.98 134.74, 103.89 89.53, 149.74 36.09 M24.83 185.88 C64.94 141.05, 107.66 92.81, 172.44 16.07 M24.83 185.88 C72.73 130.84, 120.93 75.95, 172.44 16.07 M27.85 188.51 C87.52 116.88, 147.74 48.64, 180.05 13.42 M27.85 188.51 C81.61 128.49, 135.29 66.27, 180.05 13.42 M30.21 191.89 C85.54 128.71, 137.34 65.64, 187.01 11.51 M30.21 191.89 C71.34 144.16, 111.93 97.79, 187.01 11.51 M33.23 194.51 C71.01 151.91, 111.7 107.76, 191.34 12.63 M33.23 194.51 C66.4 158.15, 99.81 120.35, 191.34 12.63 M36.25 197.14 C89.88 135.42, 142.74 74.07, 195.67 13.74 M36.25 197.14 C88.61 137.75, 139.62 79.23, 195.67 13.74 M39.27 199.76 C77.12 154.72, 116.54 108.62, 199.34 15.61 M39.27 199.76 C97.19 131.59, 156.55 65.18, 199.34 15.61 M42.29 202.38 C72.98 165.4, 106.72 127.18, 202.36 18.24 M42.29 202.38 C77.84 162.58, 113.23 122.44, 202.36 18.24 M45.3 205.01 C85.53 156.14, 128.43 110.53, 206.04 20.11 M45.3 205.01 C97.96 142.7, 151.07 82.3, 206.04 20.11 M48.32 207.63 C105.97 139.82, 160.64 74.7, 209.06 22.73 M48.32 207.63 C111.17 136.62, 171.95 65.41, 209.06 22.73 M51.34 210.26 C99.66 152.55, 149.99 96, 212.73 24.6 M51.34 210.26 C116.61 136.92, 180.1 63.24, 212.73 24.6 M54.36 212.88 C96.77 162.89, 136.39 115.53, 215.75 27.22 M54.36 212.88 C112.13 147.6, 168.98 82.99, 215.75 27.22 M57.38 215.51 C107.96 158.39, 157.13 98.79, 218.77 29.85 M57.38 215.51 C103.63 163.7, 150.04 110.79, 218.77 29.85 M60.4 218.13 C122.4 144.31, 186.99 73.53, 221.79 32.47 M60.4 218.13 C118.2 151.79, 174.27 87.21, 221.79 32.47 M63.42 220.75 C123.26 150.84, 184.69 77.26, 224.81 35.1 M63.42 220.75 C112.99 161.85, 163.76 105.98, 224.81 35.1 M66.44 223.38 C110.69 169.9, 157.2 117.85, 227.83 37.72 M66.44 223.38 C122.45 157.72, 179.51 92.99, 227.83 37.72 M69.45 226 C121.41 163.8, 173.73 103.11, 230.85 40.34 M69.45 226 C103.89 188.32, 137.94 148.82, 230.85 40.34 M72.47 228.63 C122.77 171.16, 172.05 115.69, 233.86 42.97 M72.47 228.63 C105.45 192.84, 138.32 155.43, 233.86 42.97 M75.49 231.25 C128.21 171.72, 181.7 110.5, 236.88 45.59 M75.49 231.25 C126.19 170.99, 177.43 112.77, 236.88 45.59 M78.51 233.88 C124.63 182.45, 172.59 129.68, 239.25 48.97 M78.51 233.88 C123.75 183.03, 168.12 131.19, 239.25 48.97 M81.53 236.5 C126.36 184.63, 169.41 132.39, 242.26 51.6 M81.53 236.5 C145.77 164.19, 209.99 90.39, 242.26 51.6 M84.55 239.12 C127.09 190.97, 169.3 141.48, 245.28 54.22 M84.55 239.12 C126.63 190.51, 167.26 143.36, 245.28 54.22 M86.91 242.5 C125.22 196.75, 165.88 154.02, 248.3 56.84 M86.91 242.5 C152.16 168.98, 216.09 94.94, 248.3 56.84 M89.93 245.13 C146.89 181.73, 199.54 118.56, 251.32 59.47 M89.93 245.13 C144.99 183.26, 198.41 120.92, 251.32 59.47 M92.95 247.75 C157.14 173.04, 220 98.3, 254.34 62.09 M92.95 247.75 C140.62 193.14, 187.69 140.61, 254.34 62.09 M95.97 250.38 C134.39 203.96, 174.34 161.34, 257.36 64.72 M95.97 250.38 C128.11 211.25, 162.27 173.66, 257.36 64.72 M98.99 253 C144.12 201.41, 189.34 147.49, 260.38 67.34 M98.99 253 C140.79 206.87, 181.79 159.91, 260.38 67.34 M102.01 255.62 C158.8 187.83, 215.96 123.38, 263.4 69.97 M102.01 255.62 C144.9 205.21, 190.06 152.45, 263.4 69.97 M105.02 258.25 C163.16 192.45, 219.98 127.15, 266.42 72.59 M105.02 258.25 C149.85 206.37, 194.41 154.4, 266.42 72.59 M108.04 260.87 C153.17 208.02, 199.26 155.51, 269.43 75.21 M108.04 260.87 C150.56 211, 195.06 160.77, 269.43 75.21 M111.06 263.5 C150.35 218.71, 186.6 172.82, 272.45 77.84 M111.06 263.5 C169.64 195.95, 226.9 129.55, 272.45 77.84 M114.08 266.12 C161.5 213.36, 208.36 159.03, 274.82 81.22 M114.08 266.12 C147.54 227.62, 181.84 188.9, 274.82 81.22 M117.1 268.75 C162.41 215.94, 208.83 164.1, 277.83 83.84 M117.1 268.75 C167.1 209.91, 217.23 153.97, 277.83 83.84 M120.12 271.37 C162.65 222.84, 206.44 169.79, 280.85 86.47 M120.12 271.37 C156.92 229.11, 194.1 185.52, 280.85 86.47 M123.14 273.99 C184.93 204.39, 243.38 134.94, 283.87 89.09 M123.14 273.99 C176.13 213.05, 229.55 150.93, 283.87 89.09 M126.16 276.62 C184.44 207.7, 245.48 140.25, 286.89 91.71 M126.16 276.62 C189.39 204.01, 250.92 133.64, 286.89 91.71 M129.18 279.24 C184.7 212.92, 242.98 147.61, 289.91 94.34 M129.18 279.24 C170.89 230.05, 212.17 180.79, 289.91 94.34 M132.19 281.87 C189.64 215.46, 246.55 150.53, 292.93 96.96 M132.19 281.87 C166.98 240.11, 203.15 200.26, 292.93 96.96 M135.21 284.49 C198.42 212.32, 260.4 141.47, 295.95 99.59 M135.21 284.49 C191.42 221.11, 244.46 159.36, 295.95 99.59 M138.23 287.11 C180.86 238.72, 220.81 192.9, 298.97 102.21 M138.23 287.11 C172.26 249.23, 205.94 210.72, 298.97 102.21 M141.25 289.74 C173.97 254.14, 203.93 216.65, 301.99 104.84 M141.25 289.74 C204 217.33, 266.79 143.07, 301.99 104.84 M144.27 292.36 C194.93 233, 247.37 173.07, 305 107.46 M144.27 292.36 C195.12 234.68, 245.34 176.74, 305 107.46 M147.29 294.99 C186.69 250.82, 223.37 208.77, 308.02 110.08 M147.29 294.99 C195.97 240.72, 242.91 186.64, 308.02 110.08 M150.31 297.61 C192.89 250.08, 234.67 201.44, 311.04 112.71 M150.31 297.61 C187.31 254.27, 225.02 210.81, 311.04 112.71 M153.33 300.24 C201.15 245.34, 246.67 191.27, 313.4 116.09 M153.33 300.24 C198.52 247.7, 245.2 194.62, 313.4 116.09 M156.35 302.86 C188.84 264.56, 223.16 224.94, 316.42 118.71 M156.35 302.86 C211.59 240.37, 267.68 176.53, 316.42 118.71 M159.36 305.48 C209.17 247.89, 260.45 189.69, 319.44 121.34 M159.36 305.48 C201.82 257.94, 243.67 208.83, 319.44 121.34 M162.38 308.11 C218.32 241.95, 276.63 178.49, 322.46 123.96 M162.38 308.11 C219.28 241.43, 276.73 174.7, 322.46 123.96 M166.06 309.98 C224.31 243.27, 283.25 177.54, 325.48 126.58 M166.06 309.98 C212.23 254.84, 258.14 202.9, 325.48 126.58 M169.08 312.6 C216.29 254.91, 266.41 199.66, 328.5 129.21 M169.08 312.6 C216.26 258.59, 263.2 205.02, 328.5 129.21 M172.1 315.23 C214.97 265.75, 259.48 216.13, 331.52 131.83 M172.1 315.23 C215.02 267.18, 256.8 217.58, 331.52 131.83 M176.43 316.34 C230.72 254.69, 284.67 191.26, 334.54 134.46 M176.43 316.34 C215.73 269.59, 255.93 224, 334.54 134.46 M180.1 318.21 C240.92 245.97, 301.41 177.24, 337.56 137.08 M180.1 318.21 C226.61 266.12, 272.12 212.93, 337.56 137.08 M183.12 320.84 C236.91 257.08, 292.24 191.17, 340.57 139.71 M183.12 320.84 C227.6 271.03, 270.18 221.06, 340.57 139.71 M189.42 319.69 C221.11 281.27, 257.3 242.85, 343.59 142.33 M189.42 319.69 C229.02 272.82, 270.32 225.35, 343.59 142.33 M195.72 318.54 C240.02 269.31, 282.52 218.74, 346.61 144.95 M195.72 318.54 C241.15 266.04, 288.15 212.11, 346.61 144.95 M215.79 301.54 C268.12 242.08, 322.14 178.96, 348.97 148.33 M215.79 301.54 C261.21 251.07, 304.1 200.09, 348.97 148.33 M239.15 280.77 C277.26 237.6, 312.27 192.48, 351.34 151.71 M239.15 280.77 C283.13 231.41, 326.04 180.53, 351.34 151.71 M263.16 259.24 C290.93 229.1, 318.45 195.1, 354.36 154.34 M263.16 259.24 C298.65 219.34, 332.89 178.08, 354.36 154.34 M286.52 238.47 C310.43 213.75, 331.22 185.41, 356.72 157.71 M286.52 238.47 C307.54 216.38, 326.97 193.34, 356.72 157.71 M309.88 217.7 C320.53 204.02, 334.99 190.49, 357.77 162.6 M309.88 217.7 C328.27 194.86, 348.09 173.15, 357.77 162.6 M333.23 196.93 C340.56 187.24, 346.81 181.35, 357.51 169 M333.23 196.93 C340.05 189.75, 344.49 181.5, 357.51 169" stroke="#ffc9c9" stroke-width="0.5" fill="none"></path><path d="M231.25 41.25 M231.25 41.25 C261.67 67.39, 292.8 93.14, 322.75 123.75 M231.25 41.25 C258.71 65.36, 284.99 88.64, 322.75 123.75 M322.75 123.75 C370.67 164.91, 368.3 164.98, 322.75 206.25 M322.75 123.75 C368.58 166.48, 370.55 164.59, 322.75 206.25 M322.75 206.25 C304.65 223.55, 284.94 241.81, 231.25 287.75 M322.75 206.25 C302.52 223.58, 282.36 241.56, 231.25 287.75 M231.25 287.75 C185.55 328.86, 186.97 328.41, 138.75 287.75 M231.25 287.75 C187.15 330.9, 185.57 330.45, 138.75 287.75 M138.75 287.75 C115.43 266.36, 88.72 245.84, 46.25 206.25 M138.75 287.75 C103.48 257.78, 68.85 228.15, 46.25 206.25 M46.25 206.25 C-0.25 164.56, -1.05 165.25, 46.25 123.75 M46.25 206.25 C-1.78 167.15, -0.68 165.69, 46.25 123.75 M46.25 123.75 C66.42 104.92, 86.94 85.2, 138.75 41.25 M46.25 123.75 C76.27 97.24, 107.58 69.82, 138.75 41.25 M138.75 41.25 C186.28 1.97, 185.12 -1.45, 231.25 41.25 M138.75 41.25 C185.24 -0.04, 183.87 -1.68, 231.25 41.25" stroke="#1e1e1e" stroke-width="1" fill="none"></path></g><g transform="translate(504.1166687011719 517.75) rotate(0 68.13333129882812 62.5)"><text x="68.13333129882812" y="0" font-family="Virgil, Segoe UI Emoji" font-size="20px" fill="#e03131" text-anchor="middle" style="white-space: pre;" direction="ltr" dominant-baseline="text-before-edge">list.append(10)</text><text x="68.13333129882812" y="25" font-family="Virgil, Segoe UI Emoji" font-size="20px" fill="#e03131" text-anchor="middle" style="white-space: pre;" direction="ltr" dominant-baseline="text-before-edge">Modification </text><text x="68.13333129882812" y="50" font-family="Virgil, Segoe UI Emoji" font-size="20px" fill="#e03131" text-anchor="middle" style="white-space: pre;" direction="ltr" dominant-baseline="text-before-edge">inside and </text><text x="68.13333129882812" y="75" font-family="Virgil, Segoe UI Emoji" font-size="20px" fill="#e03131" text-anchor="middle" style="white-space: pre;" direction="ltr" dominant-baseline="text-before-edge">outside the </text><text x="68.13333129882812" y="100" font-family="Virgil, Segoe UI Emoji" font-size="20px" fill="#e03131" text-anchor="middle" style="white-space: pre;" direction="ltr" dominant-baseline="text-before-edge">function</text></g><g stroke-linecap="round"><g transform="translate(199.05357153087198 580.8412949845135) rotate(0 94.6786259472346 2.3407770037491105)"><path d="M-0.89 1.08 C30.96 1.92, 158.64 3.81, 190.24 4.08 M0.85 0.6 C32.69 1.18, 158.63 1.81, 189.77 2.33" stroke="#1e1e1e" stroke-width="1" fill="none"></path></g><g transform="translate(199.05357153087198 580.8412949845135) rotate(0 94.6786259472346 2.3407770037491105)"><path d="M163.28 13.8 C169.27 9.2, 173.53 7.93, 188.81 3.86 M161.27 12.92 C168.19 10.52, 176.54 6.37, 189.26 1.43" stroke="#1e1e1e" stroke-width="1" fill="none"></path></g><g transform="translate(199.05357153087198 580.8412949845135) rotate(0 94.6786259472346 2.3407770037491105)"><path d="M163.48 -6.72 C169.27 -6.58, 173.48 -3.11, 188.81 3.86 M161.48 -7.6 C168.22 -4.81, 176.52 -3.78, 189.26 1.43" stroke="#1e1e1e" stroke-width="1" fill="none"></path></g></g><mask></mask><g transform="translate(188.5 415.5) rotate(0 88.92500305175781 12.5)"><text x="0" y="0" font-family="Virgil, Segoe UI Emoji" font-size="20px" fill="#1e1e1e" text-anchor="start" style="white-space: pre;" direction="ltr" dominant-baseline="text-before-edge">Pass by reference</text></g><g stroke-linecap="round"><g transform="translate(570.112362853914 742.0574593178251) rotate(0 -230.11409406409035 -48.290856519124816)"><path d="M0.87 1.07 C-38.86 -0.54, -161 6.68, -237.87 -9.82 C-314.74 -26.31, -423.25 -83.36, -460.36 -97.88 M-0.14 0.59 C-40.05 -1.39, -161.86 4.38, -238.69 -11.81 C-315.51 -28.01, -424.16 -82.04, -461.1 -96.58" stroke="#1e1e1e" stroke-width="1" fill="none"></path></g><g transform="translate(570.112362853914 742.0574593178251) rotate(0 -230.11409406409035 -48.290856519124816)"><path d="M-429.37 -94.34 C-441.04 -95.07, -451.78 -95.95, -459.65 -96.92 M-430.99 -94.69 C-441.16 -95.13, -451.91 -95.38, -460.94 -95.87" stroke="#1e1e1e" stroke-width="1" fill="none"></path></g><g transform="translate(570.112362853914 742.0574593178251) rotate(0 -230.11409406409035 -48.290856519124816)"><path d="M-437.55 -75.52 C-446.38 -82.78, -454.32 -90.12, -459.65 -96.92 M-439.18 -75.87 C-446.46 -82.91, -454.34 -89.75, -460.94 -95.87" stroke="#1e1e1e" stroke-width="1" fill="none"></path></g></g><mask></mask><g transform="translate(272.1333351135254 682.5) rotate(0 57.86666488647461 12.5)"><text x="0" y="0" font-family="Virgil, Segoe UI Emoji" font-size="20px" fill="#e03131" text-anchor="start" style="white-space: pre;" direction="ltr" dominant-baseline="text-before-edge">Modification</text></g><g transform="translate(471 352) rotate(0 39.15833282470703 12.5)"><text x="0" y="0" font-family="Virgil, Segoe UI Emoji" font-size="20px" fill="#2f9e44" text-anchor="start" style="white-space: pre;" direction="ltr" dominant-baseline="text-before-edge">Function</text></g><g transform="translate(547 759) rotate(0 39.15833282470703 12.5)"><text x="0" y="0" font-family="Virgil, Segoe UI Emoji" font-size="20px" fill="#2f9e44" text-anchor="start" style="white-space: pre;" direction="ltr" dominant-baseline="text-before-edge">Function</text></g><g transform="translate(190 166) rotate(0 47.625 12.5)"><text x="0" y="0" font-family="Virgil, Segoe UI Emoji" font-size="20px" fill="#2f9e44" text-anchor="start" style="white-space: pre;" direction="ltr" dominant-baseline="text-before-edge">Copy of x</text></g><g transform="translate(59 687) rotate(0 66.53333282470703 12.5)"><text x="0" y="0" font-family="Virgil, Segoe UI Emoji" font-size="20px" fill="#e03131" text-anchor="start" style="white-space: pre;" direction="ltr" dominant-baseline="text-before-edge">list = [1,2,10]</text></g><g transform="translate(225 532) rotate(0 47.49166488647461 25)"><text x="0" y="0" font-family="Virgil, Segoe UI Emoji" font-size="20px" fill="#e03131" text-anchor="start" style="white-space: pre;" direction="ltr" dominant-baseline="text-before-edge">Reference</text><text x="0" y="25" font-family="Virgil, Segoe UI Emoji" font-size="20px" fill="#e03131" text-anchor="start" style="white-space: pre;" direction="ltr" dominant-baseline="text-before-edge">of list</text></g><g stroke-linecap="round"><g transform="translate(497 320) rotate(0 -213.61143222726417 -18.632565039678553)"><path d="M-0.27 0.73 C-47.76 6.32, -214.47 44.48, -285.93 32.47 C-357.38 20.46, -405.32 -53.94, -429.02 -71.32 M1.8 0.07 C-45.24 5.92, -212.29 45.96, -283.7 33.73 C-355.11 21.5, -402.62 -55.91, -426.66 -73.31" stroke="#1e1e1e" stroke-width="1" fill="none"></path></g><g transform="translate(497 320) rotate(0 -213.61143222726417 -18.632565039678553)"><path d="M-398.36 -61.93 C-406.26 -64.97, -410.16 -66.31, -426.39 -74.77 M-400.47 -60.31 C-408.09 -63.43, -416.1 -67.21, -427.32 -73.05" stroke="#1e1e1e" stroke-width="1" fill="none"></path></g><g transform="translate(497 320) rotate(0 -213.61143222726417 -18.632565039678553)"><path d="M-413 -47.55 C-417.57 -53.7, -418.28 -58.18, -426.39 -74.77 M-415.11 -45.93 C-418.34 -53.27, -422.06 -61.26, -427.32 -73.05" stroke="#1e1e1e" stroke-width="1" fill="none"></path></g></g><mask></mask><g transform="translate(166 303) rotate(0 74.8499984741211 12.5)"><text x="0" y="0" font-family="Virgil, Segoe UI Emoji" font-size="20px" fill="#2f9e44" text-anchor="start" style="white-space: pre;" direction="ltr" dominant-baseline="text-before-edge">No Modification</text></g></svg>